# xmcd CD database file
#
# Track frame offsets:
#	150
#	11854
#	23588
#	57394
#	71562
#	81995
#	90400
#	96509
#	104663
#	123515
#	136708
#	144726
#	154241
#	167398
#	179101
#	201814
#	213779
#	219249
#	235258
#	242857
#	256489
#
# Disc length: 3507 seconds
#
# Revision: 2
# Processed by: cddbd v1.5.2PL0 Copyright (c) Steve Scherf et al.
# Submitted via: CDex 1.70beta2
#
DISCID=300db115
DTITLE=brAssMEN - Kontrastreich
DYEAR=2007
DGENRE=Instrumental Pop
TTITLE0=Sixteen Tons
TTITLE1=Ungarischer Tanz Nr. 5
TTITLE2=ABBA goes Brass
TTITLE3=Consider Me
TTITLE4=Livery Stable Blues
TTITLE5=Estampas de Palermo - El Lenguaraz
TTITLE6=Estampas de Palermo - Piazza Sicilia
TTITLE7=Estampas de Palermo - La Diquera
TTITLE8=Von Gott kommt mir ein Freudenschein
TTITLE9=Eine kleine Nachtmusik - Allegro
TTITLE10=Eine kleine Nachtmusik - Menuetto
TTITLE11=Eine kleine Nachtmusik - Rondo
TTITLE12=My Lord, What A Morning
TTITLE13=Buglers Holiday
TTITLE14=Sonata in B-Dur
TTITLE15=Ich bete an die Macht der Liebe
TTITLE16=Carmen Suite
TTITLE17=Tuxedo Junction
TTITLE18=Moon River
TTITLE19=When I'm Sixty Four
TTITLE20=Gesangsinternetdiskussionsbonus
EXTD=www.gerth.de, Art.-Nr. 939344 YEAR: 2007
EXTT0=
EXTT1=
EXTT2=
EXTT3=
EXTT4=
EXTT5=
EXTT6=
EXTT7=
EXTT8=
EXTT9=
EXTT10=
EXTT11=
EXTT12=
EXTT13=
EXTT14=
EXTT15=
EXTT16=
EXTT17=
EXTT18=
EXTT19=
EXTT20=
PLAYORDER=
